<svg width="465" height="139" viewBox="0 0 465 139" fill="none" xmlns="http://www.w3.org/2000/svg">
<path d="M15.902 5.308C19.862 5.308 23.336 6.082 26.324 7.63C29.348 9.178 31.67 11.392 33.29 14.272C34.946 17.116 35.774 20.428 35.774 24.208C35.774 27.988 34.946 31.3 33.29 34.144C31.67 36.952 29.348 39.13 26.324 40.678C23.336 42.226 19.862 43 15.902 43H2.726V5.308H15.902ZM15.632 36.574C19.592 36.574 22.652 35.494 24.812 33.334C26.972 31.174 28.052 28.132 28.052 24.208C28.052 20.284 26.972 17.224 24.812 15.028C22.652 12.796 19.592 11.68 15.632 11.68H10.286V36.574H15.632ZM69.243 27.394C69.243 28.474 69.171 29.446 69.027 30.31H47.157C47.337 32.47 48.093 34.162 49.425 35.386C50.757 36.61 52.395 37.222 54.339 37.222C57.147 37.222 59.145 36.016 60.333 33.604H68.487C67.623 36.484 65.967 38.86 63.519 40.732C61.071 42.568 58.065 43.486 54.501 43.486C51.621 43.486 49.029 42.856 46.725 41.596C44.457 40.3 42.675 38.482 41.379 36.142C40.119 33.802 39.489 31.102 39.489 28.042C39.489 24.946 40.119 22.228 41.379 19.888C42.639 17.548 44.403 15.748 46.671 14.488C48.939 13.228 51.549 12.598 54.501 12.598C57.345 12.598 59.883 13.21 62.115 14.434C64.383 15.658 66.129 17.404 67.353 19.672C68.613 21.904 69.243 24.478 69.243 27.394ZM61.413 25.234C61.377 23.29 60.675 21.742 59.307 20.59C57.939 19.402 56.265 18.808 54.285 18.808C52.413 18.808 50.829 19.384 49.533 20.536C48.273 21.652 47.499 23.218 47.211 25.234H61.413ZM87.2352 36.034L94.7952 13.084H102.841L91.7712 43H82.5912L71.5752 13.084H79.6752L87.2352 36.034ZM134.897 27.394C134.897 28.474 134.825 29.446 134.681 30.31H112.811C112.991 32.47 113.747 34.162 115.079 35.386C116.411 36.61 118.049 37.222 119.993 37.222C122.801 37.222 124.799 36.016 125.987 33.604H134.141C133.277 36.484 131.621 38.86 129.173 40.732C126.725 42.568 123.719 43.486 120.155 43.486C117.275 43.486 114.683 42.856 112.379 41.596C110.111 40.3 108.329 38.482 107.033 36.142C105.773 33.802 105.143 31.102 105.143 28.042C105.143 24.946 105.773 22.228 107.033 19.888C108.293 17.548 110.057 15.748 112.325 14.488C114.593 13.228 117.203 12.598 120.155 12.598C122.999 12.598 125.537 13.21 127.769 14.434C130.037 15.658 131.783 17.404 133.007 19.672C134.267 21.904 134.897 24.478 134.897 27.394ZM127.067 25.234C127.031 23.29 126.329 21.742 124.961 20.59C123.593 19.402 121.919 18.808 119.939 18.808C118.067 18.808 116.483 19.384 115.187 20.536C113.927 21.652 113.153 23.218 112.865 25.234H127.067ZM147.975 3.04V43H140.415V3.04H147.975ZM168.729 43.486C165.849 43.486 163.257 42.856 160.953 41.596C158.649 40.3 156.831 38.482 155.499 36.142C154.203 33.802 153.555 31.102 153.555 28.042C153.555 24.982 154.221 22.282 155.553 19.942C156.921 17.602 158.775 15.802 161.115 14.542C163.455 13.246 166.065 12.598 168.945 12.598C171.825 12.598 174.435 13.246 176.775 14.542C179.115 15.802 180.951 17.602 182.283 19.942C183.651 22.282 184.335 24.982 184.335 28.042C184.335 31.102 183.633 33.802 182.229 36.142C180.861 38.482 178.989 40.3 176.613 41.596C174.273 42.856 171.645 43.486 168.729 43.486ZM168.729 36.898C170.097 36.898 171.375 36.574 172.563 35.926C173.787 35.242 174.759 34.234 175.479 32.902C176.199 31.57 176.559 29.95 176.559 28.042C176.559 25.198 175.803 23.02 174.291 21.508C172.815 19.96 170.997 19.186 168.837 19.186C166.677 19.186 164.859 19.96 163.383 21.508C161.943 23.02 161.223 25.198 161.223 28.042C161.223 30.886 161.925 33.082 163.329 34.63C164.769 36.142 166.569 36.898 168.729 36.898ZM197.44 17.404C198.412 16.036 199.744 14.902 201.436 14.002C203.164 13.066 205.126 12.598 207.322 12.598C209.878 12.598 212.182 13.228 214.234 14.488C216.322 15.748 217.96 17.548 219.148 19.888C220.372 22.192 220.984 24.874 220.984 27.934C220.984 30.994 220.372 33.712 219.148 36.088C217.96 38.428 216.322 40.246 214.234 41.542C212.182 42.838 209.878 43.486 207.322 43.486C205.126 43.486 203.182 43.036 201.49 42.136C199.834 41.236 198.484 40.102 197.44 38.734V57.256H189.88V13.084H197.44V17.404ZM213.262 27.934C213.262 26.134 212.884 24.586 212.128 23.29C211.408 21.958 210.436 20.95 209.212 20.266C208.024 19.582 206.728 19.24 205.324 19.24C203.956 19.24 202.66 19.6 201.436 20.32C200.248 21.004 199.276 22.012 198.52 23.344C197.8 24.676 197.44 26.242 197.44 28.042C197.44 29.842 197.8 31.408 198.52 32.74C199.276 34.072 200.248 35.098 201.436 35.818C202.66 36.502 203.956 36.844 205.324 36.844C206.728 36.844 208.024 36.484 209.212 35.764C210.436 35.044 211.408 34.018 212.128 32.686C212.884 31.354 213.262 29.77 213.262 27.934ZM269.315 5.308L256.571 29.878V43H249.011V29.878L236.213 5.308H244.745L252.845 22.534L260.891 5.308H269.315ZM286.959 43.486C284.079 43.486 281.487 42.856 279.183 41.596C276.879 40.3 275.061 38.482 273.729 36.142C272.433 33.802 271.785 31.102 271.785 28.042C271.785 24.982 272.451 22.282 273.783 19.942C275.151 17.602 277.005 15.802 279.345 14.542C281.685 13.246 284.295 12.598 287.175 12.598C290.055 12.598 292.665 13.246 295.005 14.542C297.345 15.802 299.181 17.602 300.513 19.942C301.881 22.282 302.565 24.982 302.565 28.042C302.565 31.102 301.863 33.802 300.459 36.142C299.091 38.482 297.219 40.3 294.843 41.596C292.503 42.856 289.875 43.486 286.959 43.486ZM286.959 36.898C288.327 36.898 289.605 36.574 290.793 35.926C292.017 35.242 292.989 34.234 293.709 32.902C294.429 31.57 294.789 29.95 294.789 28.042C294.789 25.198 294.033 23.02 292.521 21.508C291.045 19.96 289.227 19.186 287.067 19.186C284.907 19.186 283.089 19.96 281.613 21.508C280.173 23.02 279.453 25.198 279.453 28.042C279.453 30.886 280.155 33.082 281.559 34.63C282.999 36.142 284.799 36.898 286.959 36.898ZM336.353 13.084V43H328.739V39.22C327.767 40.516 326.489 41.542 324.905 42.298C323.357 43.018 321.665 43.378 319.829 43.378C317.489 43.378 315.419 42.892 313.619 41.92C311.819 40.912 310.397 39.454 309.353 37.546C308.345 35.602 307.841 33.298 307.841 30.634V13.084H315.401V29.554C315.401 31.93 315.995 33.766 317.183 35.062C318.371 36.322 319.991 36.952 322.043 36.952C324.131 36.952 325.769 36.322 326.957 35.062C328.145 33.766 328.739 31.93 328.739 29.554V13.084H336.353ZM351.372 17.728C352.344 16.144 353.604 14.902 355.152 14.002C356.736 13.102 358.536 12.652 360.552 12.652V20.59H358.554C356.178 20.59 354.378 21.148 353.154 22.264C351.966 23.38 351.372 25.324 351.372 28.096V43H343.812V13.084H351.372V17.728ZM386.071 37.006H398.491V43H378.511V5.308H386.071V37.006ZM407.13 9.52C405.798 9.52 404.682 9.106 403.782 8.278C402.918 7.414 402.486 6.352 402.486 5.092C402.486 3.832 402.918 2.788 403.782 1.96C404.682 1.096 405.798 0.663998 407.13 0.663998C408.462 0.663998 409.56 1.096 410.424 1.96C411.324 2.788 411.774 3.832 411.774 5.092C411.774 6.352 411.324 7.414 410.424 8.278C409.56 9.106 408.462 9.52 407.13 9.52ZM410.856 13.084V43H403.296V13.084H410.856ZM432.042 19.294H426.804V43H419.136V19.294H415.734V13.084H419.136V11.572C419.136 7.9 420.18 5.2 422.268 3.472C424.356 1.744 427.506 0.933999 431.718 1.042V7.414C429.882 7.378 428.604 7.684 427.884 8.332C427.164 8.98 426.804 10.15 426.804 11.842V13.084H432.042V19.294ZM464.751 27.394C464.751 28.474 464.679 29.446 464.535 30.31H442.665C442.845 32.47 443.601 34.162 444.933 35.386C446.265 36.61 447.903 37.222 449.847 37.222C452.655 37.222 454.653 36.016 455.841 33.604H463.995C463.131 36.484 461.475 38.86 459.027 40.732C456.579 42.568 453.573 43.486 450.009 43.486C447.129 43.486 444.537 42.856 442.233 41.596C439.965 40.3 438.183 38.482 436.887 36.142C435.627 33.802 434.997 31.102 434.997 28.042C434.997 24.946 435.627 22.228 436.887 19.888C438.147 17.548 439.911 15.748 442.179 14.488C444.447 13.228 447.057 12.598 450.009 12.598C452.853 12.598 455.391 13.21 457.623 14.434C459.891 15.658 461.637 17.404 462.861 19.672C464.121 21.904 464.751 24.478 464.751 27.394ZM456.921 25.234C456.885 23.29 456.183 21.742 454.815 20.59C453.447 19.402 451.773 18.808 449.793 18.808C447.921 18.808 446.337 19.384 445.041 20.536C443.781 21.652 443.007 23.218 442.719 25.234H456.921ZM53.108 86.308L42.578 124H33.668L26.594 97.162L19.196 124L10.34 124.054L0.188 86.308H8.288L14.93 115.576L22.598 86.308H31.022L38.258 115.414L44.954 86.308H53.108ZM61.8784 90.52C60.5464 90.52 59.4304 90.106 58.5304 89.278C57.6664 88.414 57.2344 87.352 57.2344 86.092C57.2344 84.832 57.6664 83.788 58.5304 82.96C59.4304 82.096 60.5464 81.664 61.8784 81.664C63.2104 81.664 64.3084 82.096 65.1724 82.96C66.0724 83.788 66.5224 84.832 66.5224 86.092C66.5224 87.352 66.0724 88.414 65.1724 89.278C64.3084 90.106 63.2104 90.52 61.8784 90.52ZM65.6044 94.084V124H58.0444V94.084H65.6044ZM81.8757 100.294V114.766C81.8757 115.774 82.1097 116.512 82.5777 116.98C83.0817 117.412 83.9097 117.628 85.0617 117.628H88.5717V124H83.8197C77.4477 124 74.2617 120.904 74.2617 114.712V100.294H70.6977V94.084H74.2617V86.686H81.8757V94.084H88.5717V100.294H81.8757ZM110.857 93.652C113.125 93.652 115.141 94.156 116.905 95.164C118.669 96.136 120.037 97.594 121.009 99.538C122.017 101.446 122.521 103.75 122.521 106.45V124H114.961V107.476C114.961 105.1 114.367 103.282 113.179 102.022C111.991 100.726 110.371 100.078 108.319 100.078C106.231 100.078 104.575 100.726 103.351 102.022C102.163 103.282 101.569 105.1 101.569 107.476V124H94.0092V84.04H101.569V97.81C102.541 96.514 103.837 95.506 105.457 94.786C107.077 94.03 108.877 93.652 110.857 93.652Z" fill="#021206"/>
<path d="M160.074 124.378C156.546 124.378 153.306 123.55 150.354 121.894C147.402 120.238 145.062 117.952 143.334 115.036C141.606 112.084 140.742 108.754 140.742 105.046C140.742 101.374 141.606 98.08 143.334 95.164C145.062 92.212 147.402 89.908 150.354 88.252C153.306 86.596 156.546 85.768 160.074 85.768C163.638 85.768 166.878 86.596 169.794 88.252C172.746 89.908 175.068 92.212 176.76 95.164C178.488 98.08 179.352 101.374 179.352 105.046C179.352 108.754 178.488 112.084 176.76 115.036C175.068 117.952 172.746 120.238 169.794 121.894C166.842 123.55 163.602 124.378 160.074 124.378ZM160.074 117.628C162.342 117.628 164.34 117.124 166.068 116.116C167.796 115.072 169.146 113.596 170.118 111.688C171.09 109.78 171.576 107.566 171.576 105.046C171.576 102.526 171.09 100.33 170.118 98.458C169.146 96.55 167.796 95.092 166.068 94.084C164.34 93.076 162.342 92.572 160.074 92.572C157.806 92.572 155.79 93.076 154.026 94.084C152.298 95.092 150.948 96.55 149.976 98.458C149.004 100.33 148.518 102.526 148.518 105.046C148.518 107.566 149.004 109.78 149.976 111.688C150.948 113.596 152.298 115.072 154.026 116.116C155.79 117.124 157.806 117.628 160.074 117.628ZM201.554 93.652C205.118 93.652 207.998 94.786 210.194 97.054C212.39 99.286 213.488 102.418 213.488 106.45V124H205.928V107.476C205.928 105.1 205.334 103.282 204.146 102.022C202.958 100.726 201.338 100.078 199.286 100.078C197.198 100.078 195.542 100.726 194.318 102.022C193.13 103.282 192.536 105.1 192.536 107.476V124H184.976V94.084H192.536V97.81C193.544 96.514 194.822 95.506 196.37 94.786C197.954 94.03 199.682 93.652 201.554 93.652ZM248.487 108.394C248.487 109.474 248.415 110.446 248.271 111.31H226.401C226.581 113.47 227.337 115.162 228.669 116.386C230.001 117.61 231.639 118.222 233.583 118.222C236.391 118.222 238.389 117.016 239.577 114.604H247.731C246.867 117.484 245.211 119.86 242.763 121.732C240.315 123.568 237.309 124.486 233.745 124.486C230.865 124.486 228.273 123.856 225.969 122.596C223.701 121.3 221.919 119.482 220.623 117.142C219.363 114.802 218.733 112.102 218.733 109.042C218.733 105.946 219.363 103.228 220.623 100.888C221.883 98.548 223.647 96.748 225.915 95.488C228.183 94.228 230.793 93.598 233.745 93.598C236.589 93.598 239.127 94.21 241.359 95.434C243.627 96.658 245.373 98.404 246.597 100.672C247.857 102.904 248.487 105.478 248.487 108.394ZM240.657 106.234C240.621 104.29 239.919 102.742 238.551 101.59C237.183 100.402 235.509 99.808 233.529 99.808C231.657 99.808 230.073 100.384 228.777 101.536C227.517 102.652 226.743 104.218 226.455 106.234H240.657ZM279.886 124.378C277.258 124.378 274.882 123.928 272.758 123.028C270.67 122.128 269.014 120.832 267.79 119.14C266.566 117.448 265.936 115.45 265.9 113.146H274C274.108 114.694 274.648 115.918 275.62 116.818C276.628 117.718 277.996 118.168 279.724 118.168C281.488 118.168 282.874 117.754 283.882 116.926C284.89 116.062 285.394 114.946 285.394 113.578C285.394 112.462 285.052 111.544 284.368 110.824C283.684 110.104 282.82 109.546 281.776 109.15C280.768 108.718 279.364 108.25 277.564 107.746C275.116 107.026 273.118 106.324 271.57 105.64C270.058 104.92 268.744 103.858 267.628 102.454C266.548 101.014 266.008 99.106 266.008 96.73C266.008 94.498 266.566 92.554 267.682 90.898C268.798 89.242 270.364 87.982 272.38 87.118C274.396 86.218 276.7 85.768 279.292 85.768C283.18 85.768 286.33 86.722 288.742 88.63C291.19 90.502 292.54 93.13 292.792 96.514H284.476C284.404 95.218 283.846 94.156 282.802 93.328C281.794 92.464 280.444 92.032 278.752 92.032C277.276 92.032 276.088 92.41 275.188 93.166C274.324 93.922 273.892 95.02 273.892 96.46C273.892 97.468 274.216 98.314 274.864 98.998C275.548 99.646 276.376 100.186 277.348 100.618C278.356 101.014 279.76 101.482 281.56 102.022C284.008 102.742 286.006 103.462 287.554 104.182C289.102 104.902 290.434 105.982 291.55 107.422C292.666 108.862 293.224 110.752 293.224 113.092C293.224 115.108 292.702 116.98 291.658 118.708C290.614 120.436 289.084 121.822 287.068 122.866C285.052 123.874 282.658 124.378 279.886 124.378ZM308.581 100.294V114.766C308.581 115.774 308.815 116.512 309.283 116.98C309.787 117.412 310.615 117.628 311.767 117.628H315.277V124H310.525C304.153 124 300.967 120.904 300.967 114.712V100.294H297.403V94.084H300.967V86.686H308.581V94.084H315.277V100.294H308.581ZM348.524 108.394C348.524 109.474 348.452 110.446 348.308 111.31H326.438C326.618 113.47 327.374 115.162 328.706 116.386C330.038 117.61 331.676 118.222 333.62 118.222C336.428 118.222 338.426 117.016 339.614 114.604H347.768C346.904 117.484 345.248 119.86 342.8 121.732C340.352 123.568 337.346 124.486 333.782 124.486C330.902 124.486 328.31 123.856 326.006 122.596C323.738 121.3 321.956 119.482 320.66 117.142C319.4 114.802 318.77 112.102 318.77 109.042C318.77 105.946 319.4 103.228 320.66 100.888C321.92 98.548 323.684 96.748 325.952 95.488C328.22 94.228 330.83 93.598 333.782 93.598C336.626 93.598 339.164 94.21 341.396 95.434C343.664 96.658 345.41 98.404 346.634 100.672C347.894 102.904 348.524 105.478 348.524 108.394ZM340.694 106.234C340.658 104.29 339.956 102.742 338.588 101.59C337.22 100.402 335.546 99.808 333.566 99.808C331.694 99.808 330.11 100.384 328.814 101.536C327.554 102.652 326.78 104.218 326.492 106.234H340.694ZM361.602 98.404C362.574 97.036 363.906 95.902 365.598 95.002C367.326 94.066 369.288 93.598 371.484 93.598C374.04 93.598 376.344 94.228 378.396 95.488C380.484 96.748 382.122 98.548 383.31 100.888C384.534 103.192 385.146 105.874 385.146 108.934C385.146 111.994 384.534 114.712 383.31 117.088C382.122 119.428 380.484 121.246 378.396 122.542C376.344 123.838 374.04 124.486 371.484 124.486C369.288 124.486 367.344 124.036 365.652 123.136C363.996 122.236 362.646 121.102 361.602 119.734V138.256H354.042V94.084H361.602V98.404ZM377.424 108.934C377.424 107.134 377.046 105.586 376.29 104.29C375.57 102.958 374.598 101.95 373.374 101.266C372.186 100.582 370.89 100.24 369.486 100.24C368.118 100.24 366.822 100.6 365.598 101.32C364.41 102.004 363.438 103.012 362.682 104.344C361.962 105.676 361.602 107.242 361.602 109.042C361.602 110.842 361.962 112.408 362.682 113.74C363.438 115.072 364.41 116.098 365.598 116.818C366.822 117.502 368.118 117.844 369.486 117.844C370.89 117.844 372.186 117.484 373.374 116.764C374.598 116.044 375.57 115.018 376.29 113.686C377.046 112.354 377.424 110.77 377.424 108.934ZM393.988 124.378C392.62 124.378 391.486 123.964 390.586 123.136C389.722 122.272 389.29 121.21 389.29 119.95C389.29 118.69 389.722 117.646 390.586 116.818C391.486 115.954 392.62 115.522 393.988 115.522C395.32 115.522 396.418 115.954 397.282 116.818C398.146 117.646 398.578 118.69 398.578 119.95C398.578 121.21 398.146 122.272 397.282 123.136C396.418 123.964 395.32 124.378 393.988 124.378Z" fill="url(#paint0_linear_77_3119)"/>
<defs>
<linearGradient id="paint0_linear_77_3119" x1="18.48" y1="-9" x2="44.1145" y2="163.484" gradientUnits="userSpaceOnUse">
<stop stop-color="#3EFFC0"/>
<stop offset="1" stop-color="#18CA90"/>
</linearGradient>
</defs>
</svg>
